HIERARCHY
ROOT Hips
{
  OFFSET 196.326 95.9168 97.7182
  CHANNELS 6 Xposition Yposition Zposition Zrotation Xrotation Yrotation
  JOINT LeftUpLeg
  {
    OFFSET 8.64259 1.95398 -2.38835
    CHANNELS 3 Zrotation Xrotation Yrotation
    JOINT LeftLeg
    {
      OFFSET 43.7702 0 0
      CHANNELS 3 Zrotation Xrotation Yrotation
      JOINT LeftFoot
      {
        OFFSET 40.6238 0 0
        CHANNELS 3 Zrotation Xrotation Yrotation
        JOINT LeftToeBase
        {
          OFFSET 12.7242 0 0
          CHANNELS 3 Zrotation Xrotation Yrotation
          End Site
          {
            OFFSET 0 0 0
          }
        }
      }
    }
  }
  JOINT RightUpLeg
  {
    OFFSET -8.2249 1.95398 -2.59336
    CHANNELS 3 Zrotation Xrotation Yrotation
    JOINT RightLeg
    {
      OFFSET 43.5653 0 0
      CHANNELS 3 Zrotation Xrotation Yrotation
      JOINT RightFoot
      {
        OFFSET 40.6238 0 0
        CHANNELS 3 Zrotation Xrotation Yrotation
        JOINT RightToeBase
        {
          OFFSET 12.7242 0 0
          CHANNELS 3 Zrotation Xrotation Yrotation
          End Site
          {
            OFFSET 0 0 0
          }
        }
      }
    }
  }
  JOINT Spine
  {
    OFFSET 0.165834 0.87714 6.61349
    CHANNELS 3 Zrotation Xrotation Yrotation
    JOINT Spine1
    {
      OFFSET 7.38963 1.71661e-005 0
      CHANNELS 3 Zrotation Xrotation Yrotation
      JOINT Spine2
      {
        OFFSET 11.9445 1.14441e-005 0
        CHANNELS 3 Zrotation Xrotation Yrotation
        JOINT Spine3
        {
          OFFSET 14.7254 4.19617e-005 0
          CHANNELS 3 Zrotation Xrotation Yrotation
          JOINT Spine4
          {
            OFFSET 10.9679 0 0
            CHANNELS 3 Zrotation Xrotation Yrotation
            JOINT RightShoulder
            {
              OFFSET 2.46616 -1.6653 3.69651
              CHANNELS 3 Zrotation Xrotation Yrotation
              JOINT RightArm
              {
                OFFSET 13.0012 0 0
                CHANNELS 3 Zrotation Xrotation Yrotation
                JOINT RightForeArm
                {
                  OFFSET 28.7848 1.52588e-005 0
                  CHANNELS 3 Zrotation Xrotation Yrotation
                  JOINT RightHand
                  {
                    OFFSET 26.5688 1.52588e-005 0
                    CHANNELS 3 Zrotation Xrotation Yrotation
                    End Site
                    {
                      OFFSET 0 0 0
                    }
                  }
                }
              }
            }
            JOINT LeftShoulder
            {
              OFFSET 2.38034 -1.29275 -3.75231
              CHANNELS 3 Zrotation Xrotation Yrotation
              JOINT LeftArm
              {
                OFFSET 16.3182 6.10351e-005 0
                CHANNELS 3 Zrotation Xrotation Yrotation
                JOINT LeftForeArm
                {
                  OFFSET 27.0901 0 0
                  CHANNELS 3 Zrotation Xrotation Yrotation
                  JOINT LeftHand
                  {
                    OFFSET 24.5451 1.52588e-005 0
                    CHANNELS 3 Zrotation Xrotation Yrotation
                    End Site
                    {
                      OFFSET 0 0 0
                    }
                  }
                }
              }
            }
            JOINT Neck
            {
              OFFSET 5.0226 -0.0266342 0
              CHANNELS 3 Zrotation Xrotation Yrotation
              JOINT Head
              {
                OFFSET 6.69363 2.86102e-005 0
                CHANNELS 3 Zrotation Xrotation Yrotation
                End Site
                {
                  OFFSET 0 0 0
                }
              }
            }
          }
        }
      }
    }
  }
}
MOTION
Frames:	12
Frame Time:	0.0416667
-45.3034 20.866 -59.3543 -11.6849 -23.1989 39.1821 -166.239 0.33375 89.861 -8.10344 -1.64054 -1.41507 37.9739 -4.638 8.80036 51.1065 42.9388 37.7596 117.083 67.9517 109.125 -102.754 6.87846 -4.04914 53.897 -0.364743 0.0158989 53.8949 0.901871 -4.09066 1.71269 7.16715 -91.5356 12.5722 2.67066 -3.37836 0.899325 2.51947 -3.49251 -21.6374 3.5622 -2.41986 -1.62478 3.56221 -2.41986 89.6284 -24.4205 -109.889 -7.67742 -1.71463 -13.2973 -32.0401 29.7794 -127.28 -50.077 -7.0862 12.3806 -80.6063 -16.6836 90.0682 -35.2616 -48.6934 -47.566 35.3881 -12.3097 -130.744 21.6724 6.72158 26.8554 13.9144 5.55714 13.1698 34.1245 1.41887 -1.18314 
-44.1464 21.6061 -55.1046 -7.2107 -21.1003 41.4754 -166.138 1.21637 93.257 -8.19011 -0.202575 -1.68867 29.0483 -12.6535 1.5878 40.0086 18.4416 37.1108 142.608 58.0123 84.2441 -90.8563 -4.055 0.758533 57.5376 -0.161543 0.152444 68.8169 2.01767 -1.62918 1.61064 7.03173 -90.8765 12.8343 2.77893 -2.08288 1.16444 2.68461 -2.20318 -21.3893 3.27631 -1.15092 -1.37664 3.27631 -1.15091 95.8108 -8.83154 -101.942 11.6214 38.0385 -28.2622 -18.0278 5.19326 -128.46 -42.4353 -3.69456 6.36998 -82.2562 -17.6462 86.2801 -27.1201 -30.5972 -48.4441 45.001 -22.5332 -125.152 18.8136 6.11101 27.8971 16.6153 3.34018 9.00776 31.297 0.168 -1.31576 
-41.6919 21.2113 -48.9196 -1.63323 -17.8073 47.4242 -162.73 1.33442 99.3324 -6.52866 3.89423 -0.913467 29.9295 -11.5627 2.25685 27.0934 -0.722692 -7.50972 155.548 40.0929 75.2049 -69.4204 9.13292 7.35877 71.4622 -3.65936 -1.87717 71.4667 3.97828 3.95917 1.40987 6.98857 -90.4607 12.911 2.57847 -1.23431 1.24186 2.52165 -1.34665 -21.313 2.83015 -0.401768 -1.30034 2.83015 -0.401763 99.0502 4.76062 -98.2536 46.043 55.6778 -57.9863 -10.8578 -10.0949 -111.383 -32.7753 -1.7433 1.72987 -86.4109 -21.8702 77.9281 -14.7456 -17.9438 -47.2362 52.0777 -30.0361 -119.86 13.5778 4.25271 25.916 19.9265 0.340782 3.31676 28.2322 -0.845968 -0.395136 
-39.4962 20.5524 -42.7229 4.10525 -12.8568 52.9433 -159.673 10.7002 107.311 -23.0323 1.10526 -2.53407 41.368 -6.06746 7.23223 48.9353 17.3925 -21.0788 163.964 23.3352 74.3386 -46.5384 25.8678 9.43704 75.7115 -4.13794 -2.01945 74.2427 4.0341 3.34115 0.865819 6.97416 -89.8724 12.9278 1.78043 0.0419813 1.2581 1.78057 -0.0364276 -21.286 1.68546 0.575295 -1.27331 1.68547 0.575303 100.882 14.6895 -93.4724 61.0163 52.3166 -72.4075 -5.59957 -11.4639 -83.4598 -25.7941 -0.596671 -2.1733 -91.6745 -24.3691 67.7582 -3.98039 -8.80168 -40.4901 56.9955 -36.1598 -116.597 15.8624 5.11968 27.1972 22.9025 -3.06463 -2.83808 25.3151 -2.14535 -0.535658 
-38.0437 20.3561 -35.7751 8.07075 -2.77462 57.5783 -160.07 31.2015 113.084 -51.2305 11.3061 -4.00327 50.8594 -1.41162 13.3622 65.8265 29.0814 -23.6857 168.931 13.2925 80.3848 -31.0515 20.2993 4.30373 64.3668 -2.95897 -1.5848 75.1427 6.51025 9.9214 0.330742 6.81393 -89.2431 13.2379 1.02148 1.3869 1.56672 1.08151 1.34063 -20.9637 0.557491 1.62974 -0.951068 0.557481 1.62972 101.164 8.26529 -88.0517 67.4731 51.7911 -71.8553 -5.68817 -9.91332 -90.4233 -27.786 -0.826326 -1.42663 -99.3184 -28.6341 55.3164 1.78434 -12.0651 -32.8952 54.3822 -39.1232 -120.606 20.0944 6.83566 29.5187 25.2528 -8.85361 -10.9658 23.4949 -3.91499 2.47789 
-36.4335 19.433 -28.1884 13.4084 9.18066 59.8481 -161.552 52.6975 115.761 -79.0421 19.5481 -2.34102 56.7835 4.45726 18.7327 64.5446 32.954 -11.8782 172.794 7.08901 85.8314 -23.0043 13.3625 0.493323 53.9933 -3.01934 -1.72291 59.6593 6.16307 25.7842 -0.818085 6.89641 -88.6454 13.0856 -0.972328 2.83007 1.41188 -0.846878 2.87005 -21.1075 -1.7777 2.40741 -1.09486 -1.7777 2.40741 99.6379 -10.7321 -89.2934 68.6964 58.7656 -70.4038 -15.0063 -9.15585 -111.833 -22.1341 -1.5579 3.87224 -101.59 -29.8045 51.9593 10.9571 -3.92095 -29.5947 55.1572 -43.5705 -119.439 17.2897 5.9582 29.5463 23.5895 -12.7415 -15.5304 23.4861 -6.39956 2.24462 
-35.8088 17.1393 -20.9351 15.0474 15.1238 59.8884 -149.597 73.1999 109.482 -99.2532 31.4222 -0.650735 58.6649 6.98234 22.4373 65.2276 39.2319 -0.114825 176.224 6.70511 88.527 -21.2026 7.16429 -1.87375 47.5447 -2.93258 -1.70225 30.3807 -1.59563 47.8927 -1.33578 6.68934 -88.0264 13.5129 -1.69392 4.15911 1.83619 -1.50938 4.22946 -20.6685 -2.86494 3.459 -0.655889 -2.86494 3.459 97.4281 -21.0409 -93.3865 69.8698 66.1514 -67.7462 -12.7449 -10.3625 -122.221 -19.0463 -1.28739 3.54553 -103.432 -30.9051 49.4438 17.5511 4.36811 -23.6193 58.0932 -48.4637 -117.263 17.0115 5.88486 29.6328 19.4481 -14.5486 -20.992 26.1291 -6.59492 3.66148 
-35.5721 15.8743 -16.1065 17.8574 16.9496 55.8949 -97.6506 81.2252 57.9681 -114.083 38.3998 2.10365 57.4157 6.01781 24.6866 65.5826 42.5605 5.20826 177.229 6.75777 87.5768 -23.7237 -2.56097 -4.43064 43.1816 -0.736907 0.11967 24.3897 -4.0688 35.352 -1.70988 6.83714 -87.2767 13.2247 -2.08074 5.71635 1.54248 -1.82756 5.80199 -20.9293 -3.70072 4.83004 -0.916695 -3.70072 4.83003 96.4763 -23.8229 -95.0089 66.8839 67.812 -57.8877 -13.6204 -9.77693 -131.757 -20.5391 -1.37901 3.81686 -102.884 -31.4729 50.726 18.6768 8.18627 -19.1864 48.1187 -49.9686 -126.162 20.4903 6.85172 29.0632 18.7975 -15.1766 -22.8269 26.9729 -6.79728 3.60764 
-34.8912 16.0276 -13.9691 18.5878 13.1019 52.8817 -93.5801 80.8159 53.6967 -116.239 36.7653 2.88062 54.3152 1.18746 20.5386 60.996 41.0558 11.8248 177.34 6.41231 86.2664 -25.9628 -5.5635 -6.07497 40.3629 0.943845 1.65426 18.094 -4.98019 26.5465 -1.87342 6.91063 -86.8511 13.0759 -2.20531 6.57012 1.38975 -1.91466 6.66029 -21.0571 -4.07507 5.6085 -1.04449 -4.07507 5.60852 96.2171 -21.0994 -96.2771 64.3877 58.1614 -48.8759 -15.4826 -3.57774 -136.871 -21.1024 -2.19264 8.86153 -104.075 -34.3213 50.4152 18.506 8.97745 -8.38744 43.3018 -54.1455 -133.068 24.3133 7.34901 26.2848 19.1285 -13.344 -20.595 25.2011 -6.61227 0.302865 
-33.55 15.4524 -13.5344 15.0313 8.73594 53.6724 -107.697 79.9302 73.3129 -114.045 38.8375 2.34634 52.3594 -1.49856 17.7693 57.1943 38.7712 16.3863 177.927 6.93595 86.6834 -23.9489 -0.872729 -5.80002 35.4422 1.56527 2.54196 16.7065 -4.82025 23.5202 -1.611 6.62506 -87.0741 13.6373 -1.77427 6.09465 1.95292 -1.50485 6.16645 -20.5008 -3.52158 5.28344 -0.488165 -3.52159 5.28344 95.957 -21.2209 -96.8574 56.182 43.7381 -42.5441 -19.6589 6.40093 -138.588 -22.0966 -2.69861 11.4955 -106.221 -37.0533 48.5471 15.2397 2.01749 3.675 35.8982 -53.8509 -143.097 23.1493 6.65431 24.7577 19.1667 -11.416 -22.2629 24.8079 -3.6526 2.21317 
-31.0279 15.9447 -14.3646 15.8923 9.84275 55.3442 -126.218 74.9974 89.3373 -107.703 41.5725 0.0978587 54.1497 1.1924 19.9636 58.7416 42.4468 19.0373 175.93 4.24476 87.0598 -17.6884 7.18836 -2.44774 33.1833 0.751443 1.83214 7.61814 -4.11894 11.0357 -1.67421 6.70685 -87.7734 13.4897 -2.24263 4.7468 1.8117 -2.03178 4.84062 -20.6895 -3.56463 3.85523 -0.676822 -3.56464 3.85523 96.1769 -21.3072 -96.3173 50.4143 36.595 -42.2303 -24.6668 12.3917 -136.864 -23.7678 -3.4328 14.6604 -102.574 -36.6462 54.1765 11.1766 -1.49921 6.48137 32.5519 -46.9334 -145.065 28.6638 8.01851 24.4034 15.8876 -10.3472 -24.2251 27.915 -1.67654 5.14955 
-27.9561 17.983 -15.5319 17.0646 8.03351 56.3807 -140.758 64.3942 101.389 -94.142 41.2392 -3.77327 56.864 5.08666 20.6445 58.7979 46.5463 24.9841 174.349 2.17131 86.5102 -14.6803 14.1585 -0.540388 31.8288 0.0158279 1.11697 -0.197089 -5.0415 9.61434 -1.56491 6.93552 -88.8511 13.0355 -2.55434 2.60888 1.36426 -2.43708 2.71872 -21.1808 -3.22023 1.72045 -1.16818 -3.22023 1.72046 96.8157 -19.3114 -95.3043 39.3685 19.4336 -45.304 -34.9365 23.1707 -129.166 -25.1863 -3.98078 16.6756 -94.8227 -30.7695 64.6243 14.1866 -31.652 -0.799736 23.9482 -25.116 -148.825 34.6304 9.04041 22.4662 16.5884 -7.54939 -18.0859 30.1299 -0.257402 5.50441 
